<?xml version="1.0" encoding="UTF-8" standalone="no"?>
<svg xmlns="http://www.w3.org/2000/svg" xmlns:xlink="http://www.w3.org/1999/xlink" width="75.341mm" height="80.827mm" viewBox="467.041687 559.966492 75.340759 80.826599">
    <path transform="matrix(0.229727,0,0,0.229727,367.110626,537.45343)" style="stroke:#000000;stroke-width:0.217650mm;fill:none" d="M680.100769,448.851501C681.970337,448.219849,684.477966,446.98233,685.673279,446.101501L687.846558,444.5L688.402222,334C688.991211,216.879761,689.133118,213.5,693.46167,213.5C694.627869,213.5,696.047058,214.708893,696.96167,216.481384C699.452881,221.309479,707.628967,233.447205,709.354919,234.879608C710.719055,236.011703,713.348633,234.950058,727.72345,227.463593C742.569763,219.731598,758.98877,210.704803,762.837341,208.158737C763.863831,207.479645,758.921631,198.351761,741.574158,168.887009C712.768127,119.959946,714.871582,122.058678,685.079285,112.519722C677.147888,109.980232,666.085083,105.674416,660.4953,102.951233C648.798218,97.252769,646.108032,96.966736,628.926147,99.594627C620.592346,100.869247,614.385986,101.053307,598,100.511795C586.724976,100.139191,574.125,99.738777,570,99.621986C562.821411,99.418747,561.685791,99.728012,543.5,106.838562C533.049988,110.924469,517.75,116.484253,509.5,119.193642C488.32074,126.149147,486.70166,127.382866,472.783844,147.171005C448.55011,181.626099,435,203.054581,435,206.923294C435,212.262665,450.097412,221.322372,475.852264,231.438034C486.183807,235.495926,490.554993,236.784271,491.455566,236.03688C492.143646,235.465836,496.684174,230.04892,501.545654,223.999313C506.407135,217.949692,510.692719,213,511.069214,213C511.445679,213,512.663696,215.137497,513.775879,217.75C515.657471,222.169876,515.84375,225.418945,516.456116,264.5C516.882202,291.693909,516.750061,308.967682,516.081238,313.5C514.425049,324.722656,512.68573,443.187744,514.163696,444.101166C516.069702,445.279175,530.608948,446.967133,541,447.216827C546.224976,447.342377,561.603149,447.051178,575.173706,446.569733C598.729004,445.734039,626.072998,446.644592,647.5,448.97818C658.536133,450.180084,676.373657,450.110779,680.100769,448.851501z"/>
</svg>
