<?xml version="1.0" encoding="UTF-8" standalone="no"?>
<svg xmlns="http://www.w3.org/2000/svg" xmlns:xlink="http://www.w3.org/1999/xlink" width="78.718mm" height="83.740mm" viewBox="373.617188 557.694031 78.718170 83.740295">
    <path transform="matrix(0.229727,0,0,0.229727,367.110626,537.45343)" style="stroke:#000000;stroke-width:0.217650mm;fill:none" d="M119.339745,451.629456C117.051613,450.878448,113.738564,449.237976,111.977425,447.983917L108.77536,445.703857L109.13768,379.101929C109.50737,311.145172,108.382805,223.906281,107.067421,218.5L106.337494,215.5L104.031906,220C100.145424,227.585526,96.015953,233.203018,89.163132,240.226608L82.60006,246.953217L66.050034,238.404587C47.172554,228.653763,28.946083,218.022781,28.323122,216.399536C27.78404,214.994873,78.228127,129.447083,81.815292,125.682541C87.303871,119.922562,94.499962,116.284897,110.739525,111.061188C119.671265,108.188156,131.111191,103.82634,136.161575,101.368263C141.21196,98.910187,149.887054,94.920891,155.43956,92.503166L165.535019,88.107292L194.517517,88.698235C222.143005,89.261505,223.710693,89.396492,228,91.581337C238.938599,97.153114,280.832672,113.45388,297.302765,118.546677C312.705383,123.309387,315.696533,125.91806,331.214264,148.122055C359.769653,188.981369,370.954285,207.622711,370.983276,214.404831C370.997253,217.666641,370.345032,218.932739,367.022675,222.093216C360.232971,228.552109,348.316895,234.473923,325.85321,242.552795C318.390991,245.236511,315.576874,245.843918,314.148041,245.079224C311.731262,243.785812,303.815857,235.11705,295.821075,225.008026C291.560272,219.620438,289.209473,217.389725,288.518707,218.078781C286.831512,219.76178,285.460663,302.977539,286.8992,316.388794C288.586243,332.116974,290.192535,445.26297,288.741516,446.15976C283.635742,449.315277,265.667755,449.99649,211.5,449.088104C197.599777,448.855011,183.400223,449.309753,169.5,450.433228C138.650635,452.926544,124.332146,453.268036,119.339745,451.629456z"/>
    <path transform="matrix(0.229727,0,0,0.229727,367.110626,537.45343)" style="stroke:#000000;stroke-width:0.217650mm;fill:none" d="M166,447.896881C181.627655,446.61972,214.468842,446.219879,249.5,446.880249C267.201965,447.213959,282.725769,446.02359,285.849548,444.092987C287.297882,443.197876,285.543762,324.494568,283.919739,313.5C283.249695,308.963715,283.117401,291.717773,283.543884,264.5C284.15625,225.418945,284.342499,222.169876,286.224121,217.75C287.336304,215.137497,288.554321,213,288.930786,213C289.307281,213,293.592865,217.949692,298.454346,223.999313C303.315826,230.04892,307.866089,235.473892,308.56601,236.054794C309.495392,236.826096,313.703888,235.584381,324.169312,231.451111C350.694061,220.97525,365,212.344391,365,206.817734C365,203.096756,352.4711,183.30159,328.185913,148.652969C313.030518,127.030159,312.16449,126.366974,289,118.645538C279.924988,115.62056,265.75,110.373489,257.5,106.985382C237.267883,98.676468,239.001846,98.943642,238.990234,104.133369C238.970078,113.144783,230.861145,124.502983,220.812439,129.595047C210.233337,134.955872,195.521774,136.453613,181.868927,133.559753C164.686096,129.917664,151.303986,117.310638,149.402069,102.973335L148.781265,98.293434L139.140625,103.073402C133.838287,105.702385,122.974998,109.942177,115,112.495171C85.10453,122.06543,87.227333,119.949883,58.417191,168.884857C41.024563,198.426804,36.127254,207.474838,37.159184,208.160126C40.501335,210.379578,58.899643,220.466095,73.282257,227.963898C86.773682,234.997116,89.294762,236.000259,90.650787,234.874863C92.372162,233.446243,100.550926,221.302139,103.038345,216.481384C103.952919,214.708893,105.372101,213.5,106.538345,213.5C110.866882,213.5,111.008781,216.879761,111.597771,334L112.153473,444.5L114.326736,446.111908C115.522034,446.998474,117.849998,448.228455,119.5,448.845245C123.047554,450.171326,143.197708,449.760345,166,447.896881z"/>
    <path transform="matrix(0.229727,0,0,0.229727,367.110626,537.45343)" style="stroke:#000000;stroke-width:0.217650mm;fill:none" d="M85.437004,240.870895L88.143723,238.741791L70.821861,229.751648C61.294838,224.807083,49.240105,218.322723,44.033562,215.341965L34.567127,209.922409L32.805798,212.211212C31.837069,213.470047,31.034466,214.759079,31.022236,215.075729C30.96443,216.572403,78.766396,242.940399,81.615143,242.983231C82.22847,242.992462,83.948303,242.041901,85.437004,240.870895z"/>
    <path transform="matrix(0.229727,0,0,0.229727,367.110626,537.45343)" style="stroke:#000000;stroke-width:0.217650mm;fill:none" d="M325.181793,239.968018C340.784302,234.280914,352.714386,228.902588,359.051422,224.698868C366.90802,219.487152,369.371368,216.327866,368.447784,212.647919L367.768768,209.942596L363.134399,214.255692C356.41626,220.508057,336.662354,230.126282,313.613892,238.36731C311.798553,239.016388,311.794983,239.115982,313.51886,241.020844C314.503967,242.109375,315.659546,243,316.086761,243C316.514008,243,320.60675,241.635605,325.181793,239.968018z"/>
    <path transform="matrix(0.229727,0,0,0.229727,367.110626,537.45343)" style="stroke:#000000;stroke-width:0.217650mm;fill:none" d="M210.5,130.64064C225.005417,126.765907,234.898956,116.780746,236.547729,104.351692C237.250336,99.055252,236.594345,97.88781,232.148682,96.522842C229.964767,95.85231,229.843674,96.011757,230.44783,98.762459C232.214035,106.80394,225.336823,117.888062,216.121552,121.852364C201.501465,128.141754,180.096558,125.993042,168.345612,117.056412C162.545609,112.645493,159.724152,107.334633,159.179337,99.802628C158.948502,96.611183,158.56636,94,158.330154,94C158.093948,94,156.573029,94.686554,154.950333,95.525681C152.588516,96.747025,152,97.708862,152,100.347542C152,112.89875,164.435455,126.203804,180.10463,130.41748C186.953522,132.259247,203.972824,132.384201,210.5,130.64064z"/>
    <path transform="matrix(0.229727,0,0,0.229727,367.110626,537.45343)" style="stroke:#000000;stroke-width:0.217650mm;fill:none" d="M211.936539,120.232506C218.963058,118.134026,225.358917,112.166328,226.946991,106.226929C227.575378,103.87674,227.827454,101.529823,227.507156,101.011566C227.152145,100.437157,218.057617,100.309227,204.212387,100.683868C188.435516,101.110786,179.399887,100.931816,174.622559,100.097763C166.808746,98.733597,162,99.368271,162,101.763733C162,102.646385,162.944504,105.319626,164.098892,107.704269C169.973465,119.839531,193.032059,125.878365,211.936539,120.232506z"/>
    <path transform="matrix(0.229727,0,0,0.229727,367.110626,537.45343)" style="stroke:#000000;stroke-width:0.217650mm;fill:none" d="M222.25,97.562607C228.261032,97.628059,229.512436,96.501091,226.34761,93.872444C225.075027,92.81546,218.029388,92.346687,195.694458,91.832977C179.271027,91.455238,165.675888,91.552925,164.346848,92.058228C162.822784,92.63768,162,93.757263,162,95.251678C162,97.300407,162.411377,97.518135,165.75,97.236359C167.8125,97.062294,173.550003,97.347626,178.5,97.870445C183.449997,98.393257,194.024994,98.523781,202,98.160507C209.975006,97.797226,219.087494,97.528175,222.25,97.562607z"/>
    <path transform="matrix(0.229727,0,0,0.229727,367.110626,537.45343)" style="stroke:#000000;stroke-width:0.217650mm;fill:none" d="M101.078949,194.416672C101.12693,193.251724,101.363884,193.014771,101.683113,193.8125C101.971985,194.534378,101.936455,195.396881,101.604164,195.729172C101.271873,196.061462,101.03553,195.47084,101.078949,194.416672z"/>
</svg>
