<svg viewBox="0 0 700 850" xmlns="http://www.w3.org/2000/svg">
  <path fill="#e5e7eb" stroke="#9ca3af" stroke-width="1.5" d="
    M 120,260 L 580,260 L 560,760
    C 558,780 545,790 525,790
    L 175,790
    C 155,790 142,780 140,760
    Z
  "/>
  <path fill="#e5e7eb" stroke="#9ca3af" stroke-width="1.5" d="
    M 170,262
    C 170,140 185,80 220,80
    C 255,80 270,140 270,262
    L 240,262
    C 240,170 232,120 220,120
    C 208,120 200,170 200,262
    Z
  "/>
  <path fill="#e5e7eb" stroke="#9ca3af" stroke-width="1.5" d="
    M 430,262
    C 430,140 445,80 480,80
    C 515,80 530,140 530,262
    L 500,262
    C 500,170 492,120 480,120
    C 468,120 460,170 460,262
    Z
  "/>
</svg>
