<svg viewBox="0 0 800 900" xmlns="http://www.w3.org/2000/svg">
  <path fill="#e5e7eb" stroke="#9ca3af" stroke-width="1.5" d="
    M 330,55
    C 355,75 370,85 400,90
    C 430,85 445,75 470,55
    C 505,50 535,48 560,50
    C 610,55 665,75 700,120
    C 715,145 705,175 680,195
    C 665,210 662,225 660,240
    C 640,255 600,260 560,260
    C 555,290 550,320 550,360
    L 585,760
    C 588,775 580,782 560,782
    L 240,782
    C 220,782 212,775 215,760
    L 250,360
    C 250,320 245,290 240,260
    C 200,260 160,255 140,240
    C 138,225 135,210 120,195
    C 95,175 85,145 100,120
    C 135,75 190,55 240,50
    C 265,48 295,50 330,55
    Z
  "/>
</svg>
